<svg xmlns="http://www.w3.org/2000/svg" width="88.293" height="88.385" viewBox="0 0 88.293 88.385">
  <g id="Group_360" data-name="Group 360" transform="translate(-596 -123.688)">
    <g id="Group_325" data-name="Group 325" transform="translate(-15)">
      <g id="email" transform="translate(610.739 123.688)">
        <path id="Path_549" data-name="Path 549" d="M88.554,228.916a3.744,3.744,0,0,1-1.1,2.759,3.987,3.987,0,0,1-2.575.92H3.94a4.4,4.4,0,0,1-2.575-.92,3.743,3.743,0,0,1-1.1-2.759v-53.9H88.554v53.9Z" transform="translate(0 -144.209)" fill="#9dcefa"/>
        <path id="Path_550" data-name="Path 550" d="M92.616,323.8a3.987,3.987,0,0,1-2.575.92H9.105a4.4,4.4,0,0,1-2.575-.92l43.043-36.973Z" transform="translate(-5.165 -236.332)" fill="#5090c9"/>
        <path id="Path_551" data-name="Path 551" d="M88.554,30.811,76.046,39.824,46.8,60.794a4.139,4.139,0,0,1-4.966,0L12.769,39.824.261,30.811,12.769,21.8,39.993,2.3,42.016.828a4.139,4.139,0,0,1,4.966,0L49.006,2.3l13.06,9.381,6.438,4.6L76.046,21.8Z" transform="translate(0)" fill="#0f4e87"/>
        <path id="Path_552" data-name="Path 552" d="M134.591,24.466v26.12l-29.247,20.97a4.139,4.139,0,0,1-4.966,0L71.314,50.586V16.74a3.69,3.69,0,0,1,3.679-3.679H123Z" transform="translate(-58.545 -10.762)" fill="#f2f2f2"/>
        <path id="Path_553" data-name="Path 553" d="M365.974,21.523a2.905,2.905,0,0,0,2.943,2.943h8.461l-11.4-11.4v8.462Z" transform="translate(-301.333 -10.762)" fill="#cdd6e0"/>
      </g>
    </g>
    <g id="_24px_4_" data-name="24px (4)" transform="translate(628 143)">
      <path id="Path_556" data-name="Path 556" d="M0,0H24V24H0Z" fill="none"/>
      <path id="Path_557" data-name="Path 557" d="M18,8H17V6A5,5,0,0,0,7,6V8H6a2.006,2.006,0,0,0-2,2V20a2.006,2.006,0,0,0,2,2H18a2.006,2.006,0,0,0,2-2V10A2.006,2.006,0,0,0,18,8Zm-6,9a2,2,0,1,1,2-2A2.006,2.006,0,0,1,12,17Zm3.1-9H8.9V6a3.1,3.1,0,0,1,6.2,0Z" fill="#0f4e87"/>
    </g>
  </g>
</svg>
